Coordinates
version=1
nRows=4
nColumns=124
inDegrees=yes

Units are S.I. units (second, meters, Newtons, ...)
If the header above contains a line with 'inDegrees', this indicates whether rotational values are in degrees (yes) or radians (no).

endheader 
time	pelvis_tilt	pelvis_list	pelvis_rotation	pelvis_tx	pelvis_ty	pelvis_tz	hip_flexion_l	hip_adduction_l	hip_rotation_l	hip_flexion_r	hip_adduction_r	hip_rotation_r	knee_angle_l	knee_angle_r	ankle_angle_l	ankle_angle_r	subtalar_angle_l	subtalar_angle_r	mtp_angle_l	mtp_angle_r	lumbar_extension	lumbar_bending	lumbar_rotation	arm_flex_l	arm_add_l	arm_rot_l	arm_flex_r	arm_add_r	arm_rot_r	elbow_flex_l	elbow_flex_r	glut_med1_l/activation	glut_med2_l/activation	glut_med3_l/activation	glut_min1_l/activation	glut_min2_l/activation	glut_min3_l/activation	semimem_l/activation	semiten_l/activation	bifemlh_l/activation	bifemsh_l/activation	sar_l/activation	add_long_l/activation	add_brev_l/activation	add_mag1_l/activation	add_mag2_l/activation	add_mag3_l/activation	tfl_l/activation	pect_l/activation	grac_l/activation	glut_max1_l/activation	glut_max2_l/activation	glut_max3_l/activation	iliacus_l/activation	psoas_l/activation	quad_fem_l/activation	gem_l/activation	peri_l/activation	rect_fem_l/activation	vas_med_l/activation	vas_int_l/activation	vas_lat_l/activation	med_gas_l/activation	lat_gas_l/activation	soleus_l/activation	tib_post_l/activation	flex_dig_l/activation	flex_hal_l/activation	tib_ant_l/activation	per_brev_l/activation	per_long_l/activation	per_tert_l/activation	ext_dig_l/activation	ext_hal_l/activation	ercspn_l/activation	intobl_l/activation	extobl_l/activation	glut_med1_r/activation	glut_med2_r/activation	glut_med3_r/activation	glut_min1_r/activation	glut_min2_r/activation	glut_min3_r/activation	semimem_r/activation	semiten_r/activation	bifemlh_r/activation	bifemsh_r/activation	sar_r/activation	add_long_r/activation	add_brev_r/activation	add_mag1_r/activation	add_mag2_r/activation	add_mag3_r/activation	tfl_r/activation	pect_r/activation	grac_r/activation	glut_max1_r/activation	glut_max2_r/activation	glut_max3_r/activation	iliacus_r/activation	psoas_r/activation	quad_fem_r/activation	gem_r/activation	peri_r/activation	rect_fem_r/activation	vas_med_r/activation	vas_int_r/activation	vas_lat_r/activation	med_gas_r/activation	lat_gas_r/activation	soleus_r/activation	tib_post_r/activation	flex_dig_r/activation	flex_hal_r/activation	tib_ant_r/activation	per_brev_r/activation	per_long_r/activation	per_tert_r/activation	ext_dig_r/activation	ext_hal_r/activation	ercspn_r/activation	intobl_r/activation	extobl_r/activation	
          0.76741358	         -0.84666389	          3.31840212	        -14.71180381	          0.49022017	          1.00802367	          0.00917727	         24.35096173	          0.08339125	         -3.57688717	        -10.83502105	         -3.86122252	         11.45167769	        -13.94707710	         -0.61515092	         -0.53468310	         16.65212182	        -11.45635762	          1.24112827	          0.15492697	          7.11098869	         -2.62293883	          3.07578471	         -1.65329650	         19.80921830	        -13.55284728	         10.31492676	         -7.04885301	        -13.99443774	         17.40538231	         36.16491791	          1.40601151	          0.05000435	          0.05000484	          0.05000827	          0.05001324	          0.05001052	          0.05001481	          0.05000172	          0.05000529	          0.12007173	          0.05000257	          0.05001074	          0.39846941	          0.33455328	          0.06156440	          0.05492944	          0.05035024	          0.05000906	          0.05259844	          0.09177692	          0.05001414	          0.05001193	          0.05011384	          0.13695542	          0.13123304	          0.19253235	          0.05002119	          0.05000918	          0.05362240	          0.07220491	          0.07262222	          0.05001065	          0.06279521	          0.06279270	          0.09395892	          0.33055907	          0.13443384	          0.06284976	          0.05000227	          0.09336054	          0.05762414	          0.05010921	          0.62250112	          0.26584312	          0.11882027	          0.34097458	          0.14203706	          0.25691754	          0.62437106	          0.23084237	          0.29127237	          0.36427826	          0.09780081	          0.05000226	          0.05000172	          0.05000188	          0.27267746	          0.24383058	          0.05000086	          0.05000150	          0.05000814	          0.05001262	          0.05000935	          0.54968279	          0.05000726	          0.05000459	          0.05004276	          0.05003844	          0.05001048	          0.71890634	          0.76500058	          0.05002671	          0.07311933	          0.44280944	          0.08571434	          0.05000325	          0.05000295	          0.05000341	          0.41961828	          0.36192947	          0.43856038	          0.56648383	          0.20457058	          0.26317752	          0.05056684	          0.05000254	          0.05779017	          0.05001248	          0.05301104	          0.05002248	          0.05000016	          0.05000011	          0.05000013	
          0.78276185	         -0.84757688	          3.06541923	        -15.12668739	          0.50241948	          1.00569475	          0.00999522	         24.46069901	          0.00532889	         -3.37990118	        -11.33134240	         -3.82167648	         11.36221665	        -13.36200839	         -1.11354638	         -1.36844981	         17.06323455	        -12.06802576	          1.79523022	          0.17948314	          7.99193858	         -2.50541037	          2.78687037	         -1.63915342	         19.38102945	        -13.54483679	         12.15940026	         -5.56834703	        -13.81175892	         18.00122246	         30.73727408	          2.55133065	          0.05000551	          0.05000596	          0.05001401	          0.05000662	          0.05000868	          0.05001559	          0.05000426	          0.07883618	          0.15253838	          0.05000791	          0.05000962	          0.38292813	          0.30668608	          0.05076399	          0.05150715	          0.09407402	          0.05000951	          0.05004174	          0.15422900	          0.05002658	          0.05004427	          0.08601453	          0.12553224	          0.12880106	          0.21695790	          0.05001427	          0.05000294	          0.06184448	          0.10069937	          0.10595249	          0.05000678	          0.05000471	          0.05000593	          0.07482039	          0.29996494	          0.10711274	          0.05005068	          0.07244006	          0.07784569	          0.06443267	          0.05000127	          0.66817013	          0.33822466	          0.11558348	          0.33555691	          0.11395004	          0.24357097	          0.57040366	          0.27906053	          0.28210804	          0.35110734	          0.10585740	          0.05000301	          0.05000204	          0.05000217	          0.24990957	          0.23346133	          0.05000080	          0.05000148	          0.05000816	          0.05001284	          0.05001011	          0.50630086	          0.05000678	          0.05000466	          0.05004400	          0.05004103	          0.05001159	          0.69152381	          0.76718217	          0.08149178	          0.09641137	          0.41106559	          0.10009749	          0.05000300	          0.05000271	          0.05000322	          0.44128517	          0.40425166	          0.48986458	          0.58234541	          0.23375457	          0.30235837	          0.05000273	          0.05010557	          0.08252859	          0.05000706	          0.05000159	          0.05000485	          0.05000013	          0.05000009	          0.05000012	
          0.79811012	         -0.84302939	          2.82747175	        -15.50777098	          0.51511647	          1.00336444	          0.01075452	         24.47649424	          0.01445808	         -3.17715623	        -11.75921398	         -3.78977174	         11.18874036	        -13.30775890	         -1.80426103	         -2.21006234	         17.47425019	        -12.73496823	          2.37404913	          0.20453890	          8.99829573	         -2.37487589	          2.43949409	         -1.62205226	         18.54635230	        -13.51638591	         14.09580927	         -4.29711854	        -13.65591024	         18.56789215	         26.05012211	          4.20172573	          0.05000234	          0.05000187	          0.05000246	          0.05003356	          0.05000665	          0.05000704	          0.05000937	          0.06278485	          0.17806232	          0.05000118	          0.05000225	          0.30493109	          0.38837089	          0.15408154	          0.13900667	          0.11924783	          0.05000206	          0.14189589	          0.19690377	          0.05000554	          0.05000427	          0.08598472	          0.13259462	          0.11772652	          0.30797164	          0.05000350	          0.05000784	          0.06459516	          0.18032488	          0.17127979	          0.05007063	          0.06279111	          0.06279225	          0.05957972	          0.44216993	          0.21103615	          0.05000656	          0.54154061	          0.06279048	          0.05130795	          0.24427210	          0.76840338	          0.66171064	          0.11234301	          0.32540273	          0.09073882	          0.19396923	          0.45421546	          0.22463301	          0.22465927	          0.27959883	          0.12006680	          0.05000266	          0.05000153	          0.05000178	          0.21370621	          0.24618749	          0.05000039	          0.05000089	          0.05000559	          0.05000971	          0.05000834	          0.40317267	          0.05000325	          0.05000204	          0.05005267	          0.05005529	          0.05001119	          0.65142109	          0.69638696	          0.16895727	          0.12282554	          0.32733444	          0.12682515	          0.05000275	          0.05000247	          0.05000305	          0.45746445	          0.44269187	          0.53906089	          0.59902111	          0.26615751	          0.34192555	          0.05000177	          0.05812610	          0.09788603	          0.05000339	          0.05000097	          0.05000288	          0.05000007	          0.05000009	          0.05000013	
          0.81345839	         -0.83118921	          2.60565734	        -15.84838796	          0.52833355	          1.00107377	          0.01149448	         24.37725511	          0.06420632	         -2.93552954	        -12.13997782	         -3.76457906	         10.92640169	        -13.92927667	         -2.65167555	         -3.04464804	         17.84131247	        -13.43705764	          2.94553616	          0.24156725	         10.12111842	         -2.22462298	          2.03225063	         -1.60532970	         17.23519576	        -13.48306189	         15.91409845	         -3.27670276	        -13.54109809	         19.02721706	         22.26456062	          6.43528472	          0.05000042	          0.05000072	          0.05000226	          0.05000114	          0.05000153	          0.05000363	          0.05000216	          0.05000147	          0.17905306	          0.05029340	          0.06280733	          0.24281749	          0.30926095	          0.12270265	          0.11069858	          0.09499107	          0.05000140	          0.11299691	          0.15679634	          0.05000320	          0.05000227	          0.06847414	          0.10964427	          0.09902963	          0.45064085	          0.05550114	          0.05000108	          0.07528087	          0.17811549	          0.22155922	          0.05000524	          0.05000092	          0.05000235	          0.05000013	          0.35210356	          0.16805022	          0.05000378	          0.56141793	          0.05000038	          0.05000017	          0.22696500	          0.79221392	          0.62019097	          0.11899491	          0.27827841	          0.07225558	          0.15445928	          0.36169313	          0.17887780	          0.17889824	          0.22264621	          0.09563351	          0.05000237	          0.05000161	          0.05000220	          0.17017762	          0.19604548	          0.05000322	          0.05000295	          0.05001333	          0.05001742	          0.05001013	          0.32104803	          0.05004228	          0.06222924	          0.05004416	          0.05004588	          0.05002028	          0.53469366	          0.55453708	          0.20621740	          0.09783600	          0.26065772	          0.15616040	          0.05000285	          0.05000260	          0.05000319	          0.46262571	          0.46650606	          0.58148478	          0.61673398	          0.30113638	          0.38150300	          0.05000123	          0.05826542	          0.08943521	          0.05000266	          0.05000068	          0.05000205	          0.05132710	          0.05000013	          0.05000010	
